<svg width="512" height="512" viewBox="0 0 512 512" fill="none" xmlns="http://www.w3.org/2000/svg" xmlns:xlink="http://www.w3.org/1999/xlink" class=""><rect id="r32" width="512" height="512" x="0" y="0" rx="128" fill="url(#r33)" stroke="#FFFFFF" stroke-width="0" stroke-opacity="100%" paint-order="stroke"></rect><clipPath id="clip"><use xlink:href="#r32"></use></clipPath><defs><linearGradient id="r33" gradientUnits="userSpaceOnUse" gradientTransform="rotate(45)" style="transform-origin: center center;"><stop stop-color="#00B4DB"></stop><stop offset="1" stop-color="#003357"></stop></linearGradient><radialGradient id="r34" cx="0" cy="0" r="1" gradientUnits="userSpaceOnUse" gradientTransform="translate(256) rotate(90) scale(512)"><stop stop-color="white"></stop><stop offset="1" stop-color="white" stop-opacity="0"></stop></radialGradient></defs><svg xmlns="http://www.w3.org/2000/svg" fill="none" viewBox="0 0 16 16" width="352" height="352" x="80" y="80" alignment-baseline="middle" style="color: rgb(255, 255, 255);"><path fill="currentColor" fill-rule="evenodd" d="m0 2.958.297.017c.48.029 1.596.029 2.15.029.611 0 1.872 0 2.412-.029l.295-.015v1.01h-.743a5.68 5.68 0 0 0-.746.036c-.176.025-.254.058-.287.08-.017.011-.023.018-.03.046a1.204 1.204 0 0 0-.013.25v7.654a1.685 1.685 0 0 0 .014.267c.01.003.028.008.055.012.072.012.179.018.343.018h1.155c1.193 0 1.778-.412 2.104-.945.347-.568.432-1.316.505-2.065l.025-.254h.915l-.048.433h.168c.135 0 .307 0 .443-.03a.59.59 0 0 0 .061-.016l-.004-.01-.012-.022-.506-1.295H6.075l-.413 1.047a.322.322 0 0 0-.016.117c0 .038.015.08.076.122a.655.655 0 0 0 .365.087h.28v.909H3.583v-.909h.28c.398 0 .594-.1.697-.19a.721.721 0 0 0 .196-.32l.002-.005 2.308-5.856a.643.643 0 0 1 .185-.3.553.553 0 0 1 .368-.116.5.5 0 0 1 .371.133c.088.087.128.207.151.279l.001.003 2.49 6.197c.037.12.051.124.057.125.048.024.17.05.511.05h.483v.909h-3.38l-.318 2.86H0v-.996h.599c.27 0 .463-.009.6-.028a.529.529 0 0 0 .213-.058s.01-.006.018-.037a1.31 1.31 0 0 0 .014-.26V4.353c0-.136-.003-.21-.014-.26-.007-.03-.016-.036-.016-.036a.533.533 0 0 0-.215-.06 4.663 4.663 0 0 0-.6-.027H0V2.958Zm16 1.395v7.51c0 .053-.002.095-.004.13-.002.052-.003.086.004.113v1.136h-.96c-.668 0-2.132 0-2.7.028l-.295.015v-1.01h.858c.372 0 .64-.012.833-.037.199-.025.294-.06.338-.085.027-.017.03-.025.036-.047.012-.045.014-.108.014-.243V4.324c0-.09 0-.152-.003-.203a.452.452 0 0 0-.007-.054l-.004-.002a.303.303 0 0 0-.049-.014 2.306 2.306 0 0 0-.298-.02c-.14-.003-.296-.003-.427-.003-1.108 0-1.576.133-1.833.435-.132.156-.232.383-.309.733-.077.351-.127.798-.177 1.377l-.023.256h-.908l.305-3.767H16v1.291Zm-8.674.68.863 2.217H6.443l.883-2.217Z" clip-rule="evenodd"></path></svg></svg>